# xmcd CD database file
#
# Track frame offsets:
#	150
#	21845
#	42787
#	56550
#	70995
#	90422
#	108925
#	125012
#	136010
#	151665
#	167482
#
# Disc length: 2487 seconds
#
# Revision: 4
# Processed by: cddbd v1.5.2PL0 Copyright (c) Steve Scherf et al.
# Submitted via: CDex 1.82
#
DISCID=8109b50b
DTITLE=Bebel Gilberto - Tanto Tempo
DYEAR=1900
DGENRE=Blues
TTITLE0=Samba de Bencao
TTITLE1=August Day Song
TTITLE2=Tanto Tempo
TTITLE3=Sem Contencao
TTITLE4=Mais Feliz
TTITLE5=Alguem
TTITLE6=So Nice (Summer Samba)
TTITLE7=Lonely
TTITLE8=Bananeira
TTITLE9=Samba E Amor
TTITLE10=Close Your Eyes
EXTD=
EXTT0=
EXTT1=
EXTT2=
EXTT3=
EXTT4=
EXTT5=
EXTT6=
EXTT7=
EXTT8=
EXTT9=
EXTT10=
PLAYORDER=
